<svg width="2929" height="2578" viewBox="0 0 2929 2578" fill="none" xmlns="http://www.w3.org/2000/svg">
<path d="M1389.88 44.6064C1365.91 78.5119 22.2517 2426.25 22.2517 2426.25C-31.0651 2521.96 22.2696 2577.95 93.4892 2577.95H1249.59C1300.69 2577.95 1339.24 2512.03 1314.66 2464.08L1189.41 2242.82C1172.12 2216.77 1153.31 2207.03 1116.21 2207.03H707.925C632.265 2207.03 595.569 2149.7 621.713 2089.89C621.713 2089.89 1019.09 1391.38 1065.5 1309.76C1111.9 1228.14 1184.91 1221.77 1233.43 1306.56L1929.07 2524.73C1957.38 2569.48 1967.57 2577.95 2024.04 2577.95H2860.57C2905.54 2577.95 2954.3 2509 2912.42 2435.43C2912.42 2435.43 1552.47 72.2977 1534.16 44.6064C1515.86 16.9151 1488.88 0.919922 1462.33 0.919922C1435.78 0.919922 1413.85 10.7009 1389.88 44.6064Z" fill="#0F1823"/>
</svg>
